<svg width="192" height="194" viewBox="0 0 192 194" fill="none" xmlns="http://www.w3.org/2000/svg">
    <rect y="1.5" width="192" height="192" rx="50" fill="white" fill-opacity="0.698039"/>
    <rect y="1.5" width="192" height="192" rx="50" fill="url(#paint0_linear_2311_72)" fill-opacity="0.698039"/>
    <path d="M42.92 88.2H54.6V91.56H42.92V116.36C42.92 119.507 43.2933 121.693 44.04 122.92C44.7867 124.093 45.9867 124.68 47.64 124.68C49.2933 124.68 51.5333 124.28 54.36 123.48V126.44C50.6267 127.453 47.5867 127.96 45.24 127.96C38.7333 127.96 35.48 124.04 35.48 116.2V91.56H28.6V88.2H35.48V79.96L42.92 75.72V88.2ZM62.6375 67H106.718V81.32H102.558L99.4375 70.44H78.9575V94.36H94.3975L96.5575 87.4H99.5175V103.96H96.5575L94.3975 97.88H78.9575V123.56H100.878L103.998 112.76H108.238V127H62.6375V124.04L70.5575 122.2V71.88L62.6375 69.96V67ZM113.853 88.2H134.173V91.16L129.293 92.12L137.133 103.48L146.333 92.04L140.653 91.16V88.2H156.973V91.16L151.213 92.2L139.213 105.88L151.693 122.68L157.853 123.96V127H137.533V123.96L142.653 122.68L134.413 110.76L125.133 122.84L130.733 123.96V127H113.933V123.96L120.093 122.68L132.093 108.36L120.173 92.2L113.853 91.16V88.2Z" fill="black"/>
    <defs>
        <linearGradient id="paint0_linear_2311_72" x1="0" y1="97.5" x2="192" y2="97.5" gradientUnits="userSpaceOnUse">
            <stop stop-color="#FF5757"/>
            <stop offset="1" stop-color="#8C52FF"/>
        </linearGradient>
    </defs>
</svg>
