<svg width="512" height="512" viewBox="0 0 512 512" fill="none" xmlns="http://www.w3.org/2000/svg">
    <rect width="512" height="512" rx="50" fill="white" fill-opacity="0.698039"/>
    <rect width="512" height="512" rx="50" fill="url(#paint0_linear_2311_55)" fill-opacity="0.698039"/>
    <path d="M65.7 219.5H109.5V232.1H65.7V325.1C65.7 336.9 67.1 345.1 69.9 349.7C72.7 354.1 77.2 356.3 83.4 356.3C89.6 356.3 98 354.8 108.6 351.8V362.9C94.6 366.7 83.2 368.6 74.4 368.6C50 368.6 37.8 353.9 37.8 324.5V232.1H12V219.5H37.8V188.6L65.7 172.7V219.5ZM139.641 140H304.941V193.7H289.341L277.641 152.9H200.841V242.6H258.741L266.841 216.5H277.941V278.6H266.841L258.741 255.8H200.841V352.1H283.041L294.741 311.6H310.641V365H139.641V353.9L169.341 347V158.3L139.641 151.1V140ZM331.699 219.5H407.899V230.6L389.599 234.2L418.999 276.8L453.499 233.9L432.199 230.6V219.5H493.399V230.6L471.799 234.5L426.799 285.8L473.599 348.8L496.699 353.6V365H420.499V353.6L439.699 348.8L408.799 304.1L373.999 349.4L394.999 353.6V365H331.999V353.6L355.099 348.8L400.099 295.1L355.399 234.5L331.699 230.6V219.5Z" fill="black"/>
    <defs>
        <linearGradient id="paint0_linear_2311_55" x1="0" y1="256" x2="512" y2="256" gradientUnits="userSpaceOnUse">
            <stop stop-color="#FF5757"/>
            <stop offset="1" stop-color="#8C52FF"/>
        </linearGradient>
    </defs>
</svg>
