<svg width="384" height="387" viewBox="0 0 384 387" fill="none" xmlns="http://www.w3.org/2000/svg">
    <rect y="3" width="384" height="384" rx="50" fill="white" fill-opacity="0.698039"/>
    <rect y="3" width="384" height="384" rx="50" fill="url(#paint0_linear_2311_62)" fill-opacity="0.698039"/>
    <path d="M64.8 171H94V179.4H64.8V241.4C64.8 249.267 65.7333 254.733 67.6 257.8C69.4667 260.733 72.4667 262.2 76.6 262.2C80.7333 262.2 86.3333 261.2 93.4 259.2V266.6C84.0667 269.133 76.4667 270.4 70.6 270.4C54.3333 270.4 46.2 260.6 46.2 241V179.4H29V171H46.2V150.4L64.8 139.8V171ZM114.094 118H224.294V153.8H213.894L206.094 126.6H154.894V186.4H193.494L198.894 169H206.294V210.4H198.894L193.494 195.2H154.894V259.4H209.694L217.494 232.4H228.094V268H114.094V260.6L133.894 256V130.2L114.094 125.4V118ZM242.133 171H292.933V178.4L280.733 180.8L300.333 209.2L323.333 180.6L309.133 178.4V171H349.933V178.4L335.533 181L305.533 215.2L336.733 257.2L352.133 260.4V268H301.333V260.4L314.133 257.2L293.533 227.4L270.333 257.6L284.333 260.4V268H242.333V260.4L257.733 257.2L287.733 221.4L257.933 181L242.133 178.4V171Z" fill="black"/>
    <defs>
        <linearGradient id="paint0_linear_2311_62" x1="0" y1="195" x2="384" y2="195" gradientUnits="userSpaceOnUse">
            <stop stop-color="#FF5757"/>
            <stop offset="1" stop-color="#8C52FF"/>
        </linearGradient>
    </defs>
</svg>
